<svg xmlns="http://www.w3.org/2000/svg" width="254" height="51" viewBox="0 0 254 51">
  <g id="Grupo_3740" data-name="Grupo 3740" transform="translate(14745 17856)">
    <rect id="Rectángulo_3182" data-name="Rectángulo 3182" width="254" height="51" transform="translate(-14745 -17856)" fill="none"/>
    <g id="Grupo_3676" data-name="Grupo 3676" transform="translate(-14736.428 -17846.576)">
      <g id="Grupo_14" data-name="Grupo 14" transform="translate(0 0)">
        <path id="Trazado_11079" data-name="Trazado 11079" d="M357.993,1672.483a6.942,6.942,0,0,0,2.422-3.627h0l0-.01,0-.009h0a7.61,7.61,0,0,0,.329-2.345,8.089,8.089,0,0,0-.633-3.15,8.819,8.819,0,0,0-.914-1.647l-.012-.017h0a8.341,8.341,0,0,0-3.092-2.633,9.211,9.211,0,0,0-4.08-.881H328.545V1689h23.35a16.534,16.534,0,0,0,3.652-.33,8.8,8.8,0,0,0,3.293-1.467l0,0a7.79,7.79,0,0,0,2.829-3.883,10.267,10.267,0,0,0,.533-3.256,9.15,9.15,0,0,0-1.364-4.93A7.68,7.68,0,0,0,357.993,1672.483Zm-3.169-8.006a4.045,4.045,0,0,1,.581,2.178,3.344,3.344,0,0,1-.783,2.343l-.021.025a3.8,3.8,0,0,1-2.025,1.257,10.664,10.664,0,0,1-2.693.248H333.727v-7.664h16.558a9.8,9.8,0,0,1,2.745.271A3.052,3.052,0,0,1,354.824,1664.476Zm-21.1,10.869H349.64a16.751,16.751,0,0,1,3.851.325,4.313,4.313,0,0,1,2.621,1.59l0,0,.016.022a4.189,4.189,0,0,1,.71,1.614,5.547,5.547,0,0,1,.135,1.164,4.746,4.746,0,0,1-.577,2.2v0a3.225,3.225,0,0,1-1.547,1.456,7.036,7.036,0,0,1-2.916.5H333.727Z" transform="translate(-328.545 -1657.398)" fill="#1d1d1b"/>
        <path id="Trazado_11080" data-name="Trazado 11080" d="M393.689,1675.823a9.39,9.39,0,0,0,3.466-1.558l-.472-.641.476.639h0a8.122,8.122,0,0,0,2.8-3.746,9.7,9.7,0,0,0,.582-3.338,9.428,9.428,0,0,0-1.447-5.171,7.951,7.951,0,0,0-3.1-2.772,10.435,10.435,0,0,0-4.356-1.028h-.02c-.72-.042-1.432-.042-2.105-.042H368.66V1689H373.8v-12.685h11.264L396.3,1689h7.07l-11.591-12.857A15.478,15.478,0,0,0,393.689,1675.823Zm.955-6.613a3.4,3.4,0,0,1-1.814,1.68,9.515,9.515,0,0,1-3.141.563h-.007c-.6.036-1.184.036-1.82.036H373.8V1662.9h15.792a15.258,15.258,0,0,1,2.167.1,4.234,4.234,0,0,1,1.756.626,3.613,3.613,0,0,1,1.4,1.921,4.982,4.982,0,0,1,.245,1.468A5.259,5.259,0,0,1,394.644,1669.211Z" transform="translate(-319.098 -1657.398)" fill="#1d1d1b"/>
        <path id="Trazado_11081" data-name="Trazado 11081" d="M407.342,1689h5.1v-30.834h-5.1Z" transform="translate(-309.988 -1657.398)" fill="#1d1d1b"/>
        <path id="Trazado_11082" data-name="Trazado 11082" d="M455.087,1658.163h-5.314l-19.634,15.953v-15.953h-5.1V1689h5.1v-8.725l8.041-6.528L450.469,1689h6.678l-14.965-18.5,15.143-12.331Z" transform="translate(-305.821 -1657.398)" fill="#1d1d1b"/>
        <path id="Trazado_11083" data-name="Trazado 11083" d="M490.049,1675.209a8.382,8.382,0,0,0-3.636-2.866h0l0,0h0c-2.32-1-5.439-1.415-10.114-2.066-.888-.124-1.832-.253-2.838-.4h-.008c-1.334-.178-2.324-.316-3.1-.473a7.927,7.927,0,0,1-1.853-.566,3.49,3.49,0,0,1-.969-.646,1.756,1.756,0,0,1-.525-1.311,3.04,3.04,0,0,1,.363-1.414h0a4.69,4.69,0,0,1,1.662-1.575,13.774,13.774,0,0,1,6.758-1.485,18.006,18.006,0,0,1,4.788.6,9.908,9.908,0,0,1,4.437,2.475c.252.289.55.662.77.953l.206.277.409.543,4.765-2.53-.907-1.132h0a14.679,14.679,0,0,0-2.1-2.147l-.009-.007a18.889,18.889,0,0,0-12.16-3.9,20.824,20.824,0,0,0-9.6,2.084h0A8.583,8.583,0,0,0,461.7,1667a6.707,6.707,0,0,0,1.583,4.425,7.854,7.854,0,0,0,2.459,1.922,18.545,18.545,0,0,0,5.563,1.446l.519.08h.009c.911.13,1.827.248,2.747.366.8.1,1.61.207,2.414.32h0l.541.072h0c1.118.145,2.7.352,4.176.677a16.189,16.189,0,0,1,2.045.574,4.882,4.882,0,0,1,1.367.706,2.441,2.441,0,0,1,.567.692,2.782,2.782,0,0,1,.326,1.362,3.466,3.466,0,0,1-.579,1.953,5.642,5.642,0,0,1-1.856,1.688,14.775,14.775,0,0,1-7.517,1.682c-4.6,0-7.093-1.066-8.351-1.889a7.694,7.694,0,0,1-2.932-3.83l-.146-.373-.288-.734-5.383,2.037.8,1.464a15.585,15.585,0,0,0,2.456,3.618h0l.009.007h0c1.754,1.878,5.187,4.116,11.391,4.512h0l.188.011h.01c.829.039,1.625.077,2.444.077a20.383,20.383,0,0,0,9.376-1.932,11.1,11.1,0,0,0,4.178-3.541l.072-.1.009-.028a8.852,8.852,0,0,0,1.46-4.776A7.381,7.381,0,0,0,490.049,1675.209Z" transform="translate(-297.83 -1657.544)" fill="#1d1d1b"/>
        <path id="Trazado_11084" data-name="Trazado 11084" d="M464.449,1670.338h0l0,0Z" transform="translate(-296.541 -1654.532)" fill="#1d1d1b"/>
        <path id="Trazado_11085" data-name="Trazado 11085" d="M501.112,1670.338l0,0h0Z" transform="translate(-287.907 -1654.532)" fill="#1d1d1b"/>
        <path id="Trazado_11086" data-name="Trazado 11086" d="M526.709,1675.209a8.382,8.382,0,0,0-3.636-2.866h0l0,0h0c-2.32-1-5.439-1.414-10.113-2.066-.889-.124-1.835-.253-2.839-.4h-.008c-1.334-.178-2.324-.316-3.1-.473a7.936,7.936,0,0,1-1.856-.567,3.494,3.494,0,0,1-.967-.646,1.761,1.761,0,0,1-.524-1.31,3.026,3.026,0,0,1,.363-1.413l0,0a4.691,4.691,0,0,1,1.662-1.575,13.781,13.781,0,0,1,6.758-1.485,18.022,18.022,0,0,1,4.789.6,9.888,9.888,0,0,1,4.435,2.476c.252.288.549.66.766.95l.21.279.408.544,4.767-2.531-.906-1.132a14.767,14.767,0,0,0-2.1-2.147l-.007-.006a18.888,18.888,0,0,0-12.159-3.9,20.826,20.826,0,0,0-9.606,2.084h0a8.585,8.585,0,0,0-4.68,7.372,6.716,6.716,0,0,0,1.584,4.426,7.866,7.866,0,0,0,2.456,1.921,18.561,18.561,0,0,0,5.566,1.446l.519.08h.009c.908.13,1.825.248,2.743.366.806.1,1.612.207,2.417.32h.005l.541.072h0c1.118.145,2.7.352,4.176.677a16.438,16.438,0,0,1,2.045.574,4.889,4.889,0,0,1,1.368.708h0a2.433,2.433,0,0,1,.567.69,2.777,2.777,0,0,1,.326,1.362,3.47,3.47,0,0,1-.579,1.953,5.642,5.642,0,0,1-1.856,1.688,14.769,14.769,0,0,1-7.517,1.682c-4.6,0-7.1-1.066-8.352-1.891a7.7,7.7,0,0,1-2.931-3.829l-.148-.375-.287-.732-5.381,2.037.792,1.453a15.57,15.57,0,0,0,2.462,3.627h0l.009.007h0c1.753,1.879,5.187,4.116,11.391,4.512h.006l.19.011h.007c.828.039,1.625.077,2.444.077a20.377,20.377,0,0,0,9.375-1.932,11.1,11.1,0,0,0,4.179-3.541l0,.006,0,0,.007-.011a8.825,8.825,0,0,0,1.533-4.9A7.382,7.382,0,0,0,526.709,1675.209Z" transform="translate(-289.196 -1657.544)" fill="#1d1d1b"/>
      </g>
    </g>
  </g>
</svg>
